<svg width="9" height="9" viewBox="0 0 9 9" fill="none" xmlns="http://www.w3.org/2000/svg">
<g clip-path="url(#clip0_17_29)">
<path d="M8.68587 1.04581V8.23831C8.68587 8.48555 8.48555 8.68409 8.24008 8.68409H6.17891V5.55443H7.22932L7.38638 4.33433H6.1771V3.55462C6.1771 3.20086 6.27457 2.96083 6.78173 2.96083H7.42789V1.86884C7.31597 1.85441 6.93334 1.82013 6.48572 1.82013C5.55441 1.82013 4.91546 2.38866 4.91546 3.4337V4.33433H3.86143V5.55443H4.91546V8.6859H1.04581C0.800336 8.6859 0.599998 8.48556 0.599998 8.24008V1.04581C0.599998 0.800336 0.800336 0.599998 1.04581 0.599998H8.23827C8.48556 0.599998 8.68587 0.800336 8.68587 1.04581Z" stroke="white" stroke-width="0.8" stroke-miterlimit="10" stroke-linecap="round" stroke-linejoin="round"/>
</g>
<defs>
<clipPath id="clip0_17_29">
<rect width="9" height="9" fill="white"/>
</clipPath>
</defs>
</svg>
