<svg width="9" height="9" viewBox="0 0 9 9" fill="none" xmlns="http://www.w3.org/2000/svg">
<g clip-path="url(#clip0_17_34)">
<path fill-rule="evenodd" clip-rule="evenodd" d="M8.25 4.67997C8.25 6.33837 7.17915 7.74507 5.6937 8.24307C5.50365 8.27982 5.4366 8.16282 5.4366 8.06232C5.4366 7.93917 5.44125 7.53387 5.44125 7.03197C5.44125 6.68127 5.32125 6.45222 5.18715 6.33687C6.02025 6.24327 6.8955 5.92617 6.8955 4.48362C6.8955 4.07367 6.7506 3.73767 6.51045 3.47517C6.54945 3.38007 6.67725 2.99892 6.4731 2.48142C6.4731 2.48142 6.15975 2.38092 5.4459 2.86647C5.1474 2.78307 4.82715 2.74167 4.50915 2.74017C4.19115 2.74167 3.8709 2.78307 3.5724 2.86647C2.85855 2.38092 2.5437 2.48142 2.5437 2.48142C2.3403 2.99892 2.46885 3.38007 2.50785 3.47517C2.2677 3.73767 2.12205 4.07367 2.12205 4.48362C2.12205 5.92227 2.99565 6.24492 3.8265 6.33912C3.7197 6.43347 3.6231 6.59877 3.58875 6.84102C3.37515 6.93777 2.8335 7.10367 2.50005 6.52932C2.50005 6.52932 2.30205 6.16932 1.9272 6.14277C1.9272 6.14277 1.56165 6.13812 1.9014 6.37107C1.9014 6.37107 2.14695 6.48642 2.3169 6.91977C2.3169 6.91977 2.5359 7.65087 3.57705 7.42332C3.57855 7.73727 3.5817 7.97352 3.5817 8.06232C3.5817 8.16207 3.5139 8.27742 3.32685 8.24307C1.8399 7.74672 0.7683 6.33912 0.7683 4.67997C0.7683 2.60532 2.44305 0.924271 4.50915 0.924271C6.57525 0.924271 8.25 2.60532 8.25 4.67997Z" stroke="white" stroke-width="0.4"/>
<path fill-rule="evenodd" clip-rule="evenodd" d="M8.37931 9H0.62069C0.277914 9 4.76837e-07 8.72209 4.76837e-07 8.37931V0.62069C4.76837e-07 0.277914 0.277914 0 0.62069 0H8.37931C8.72209 0 9 0.277914 9 0.62069V8.37931C9 8.72209 8.72209 9 8.37931 9Z" stroke="white" stroke-linejoin="round"/>
</g>
<defs>
<clipPath id="clip0_17_34">
<rect width="9" height="9" fill="white"/>
</clipPath>
</defs>
</svg>
