<svg width="11" height="11" viewBox="0 0 11 11" fill="none" xmlns="http://www.w3.org/2000/svg">
<path d="M7.2449 1.73469C7.78074 1.73469 8.29464 1.94756 8.67354 2.32646C9.05244 2.70536 9.26531 3.21926 9.26531 3.7551V7.2449C9.26531 7.78074 9.05244 8.29464 8.67354 8.67354C8.29464 9.05244 7.78074 9.26531 7.2449 9.26531H3.7551C3.21926 9.26531 2.70536 9.05244 2.32646 8.67354C1.94756 8.29464 1.73469 7.78074 1.73469 7.2449V3.7551C1.73469 3.21926 1.94756 2.70536 2.32646 2.32646C2.70536 1.94756 3.21926 1.73469 3.7551 1.73469H7.2449ZM7.2449 1H3.7551C3.02507 1.00218 2.32557 1.29315 1.80936 1.80936C1.29315 2.32557 1.00218 3.02507 1 3.7551V7.2449C1.00218 7.97493 1.29315 8.67443 1.80936 9.19064C2.32557 9.70685 3.02507 9.99782 3.7551 10H7.2449C7.97493 9.99782 8.67443 9.70685 9.19064 9.19064C9.70685 8.67443 9.99782 7.97493 10 7.2449V3.7551C9.99782 3.02507 9.70685 2.32557 9.19064 1.80936C8.67443 1.29315 7.97493 1.00218 7.2449 1Z" fill="white"/>
<path d="M7.90061 2.56123C7.79653 2.56123 7.69479 2.59209 7.60826 2.64991C7.52172 2.70773 7.45427 2.78992 7.41444 2.88607C7.37461 2.98223 7.36419 3.08803 7.3845 3.19011C7.4048 3.29219 7.45492 3.38595 7.52851 3.45955C7.60211 3.53314 7.69587 3.58326 7.79795 3.60356C7.90003 3.62387 8.00583 3.61345 8.10199 3.57362C8.19814 3.53379 8.28033 3.46634 8.33815 3.37981C8.39597 3.29327 8.42684 3.19153 8.42684 3.08745C8.42684 3.01835 8.41322 2.94992 8.38678 2.88607C8.36033 2.82223 8.32157 2.76422 8.27271 2.71535C8.22384 2.66649 8.16583 2.62773 8.10199 2.60128C8.03814 2.57484 7.96972 2.56123 7.90061 2.56123Z" fill="white"/>
<path d="M5.5248 3.89011C5.84601 3.88992 6.16005 3.98502 6.42721 4.16336C6.69436 4.3417 6.90261 4.59528 7.02562 4.892C7.14862 5.18873 7.18085 5.51527 7.11823 5.83032C7.05561 6.14536 6.90096 6.43476 6.67383 6.66189C6.4467 6.88902 6.1573 7.04368 5.84225 7.1063C5.52721 7.16892 5.20066 7.13669 4.90394 7.01368C4.60721 6.89068 4.35364 6.68242 4.1753 6.41527C3.99696 6.14812 3.90186 5.83407 3.90204 5.51286C3.90277 5.0827 4.07397 4.67037 4.37814 4.3662C4.68231 4.06204 5.09464 3.89083 5.5248 3.89011ZM5.5248 3.15541C5.05851 3.15632 4.60296 3.29543 4.21572 3.55516C3.82847 3.81489 3.52691 4.18359 3.34914 4.61466C3.17137 5.04573 3.12538 5.51982 3.21697 5.97702C3.30856 6.43422 3.53362 6.85401 3.86372 7.18334C4.19382 7.51266 4.61413 7.73675 5.07154 7.82727C5.52896 7.9178 6.00294 7.87069 6.43359 7.69192C6.86424 7.51315 7.23223 7.21072 7.49106 6.82287C7.74989 6.43502 7.88794 5.97914 7.88776 5.51286C7.88764 5.20285 7.82639 4.8959 7.70753 4.60957C7.58867 4.32325 7.41453 4.06317 7.19506 3.84421C6.97559 3.62525 6.7151 3.45172 6.4285 3.33352C6.1419 3.21533 5.83481 3.15481 5.5248 3.15541Z" fill="white"/>
</svg>
