<svg width="11" height="11" viewBox="0 0 11 11" fill="none" xmlns="http://www.w3.org/2000/svg">
<path fill-rule="evenodd" clip-rule="evenodd" d="M3.78509 8.50194V4.49075H2.49804V8.50194H3.78509ZM3.18963 3.88356C3.61864 3.88356 3.8859 3.57645 3.8859 3.19197C3.87887 2.80047 3.61864 2.50039 3.19666 2.50039C2.77468 2.50039 2.50039 2.80047 2.50039 3.19197C2.50039 3.57645 2.76764 3.88356 3.18025 3.88356H3.18963Z" fill="white"/>
<path fill-rule="evenodd" clip-rule="evenodd" d="M7.01562 4.39931C6.33341 4.39931 6.04036 4.78379 5.85281 5.05104V4.49309H4.56342V8.50194H5.85281V6.21853C5.85281 6.10131 5.86219 5.9841 5.89736 5.90204C5.99113 5.66761 6.20212 5.42614 6.55847 5.42614C7.02499 5.42614 7.21254 5.78483 7.21254 6.30996V8.50194H8.50194V6.15992C8.50194 4.95727 7.86427 4.39931 7.01562 4.39931Z" fill="white"/>
<path d="M9.28027 1H1.76895C1.35869 1 1 1.29539 1 1.70096V9.22869C1 9.63661 1.35869 9.99999 1.76895 9.99999H9.27793C9.69053 9.99999 9.99999 9.63427 9.99999 9.22869V1.70096C10.0023 1.29539 9.69053 1 9.28027 1ZM9.20525 9.25214C9.17946 9.25214 1.86507 9.25214 1.82287 9.25214C1.78067 9.25214 1.75019 9.21932 1.75019 9.17946C1.75019 9.13961 1.75019 1.82287 1.75019 1.79708C1.75019 1.77129 1.77364 1.75019 1.79708 1.75019C1.82053 1.75019 9.18181 1.75019 9.20525 1.75019C9.22869 1.75019 9.25214 1.77364 9.25214 1.79708C9.25214 2.34332 9.25214 9.17946 9.25214 9.20525C9.25214 9.22635 9.23104 9.25214 9.20525 9.25214Z" fill="white"/>
</svg>
